<?xml version="1.0" encoding="UTF-8" standalone="no"?>
<!DOCTYPE svg PUBLIC "-//W3C//DTD SVG 1.1//EN" "http://www.w3.org/Graphics/SVG/1.1/DTD/svg11.dtd">
<svg width="100%" height="100%" viewBox="0 0 45 39" version="1.1" xmlns="http://www.w3.org/2000/svg" xmlns:xlink="http://www.w3.org/1999/xlink" xml:space="preserve" style="fill-rule:evenodd;clip-rule:evenodd;stroke-linejoin:round;stroke-miterlimit:1.41421;">
    <g transform="matrix(1,0,0,1,0.3,0.2)">
        <path d="M33.3,0L11.1,0L0,19.3L11.1,38.6L33.3,38.6L44.4,19.3L33.3,0ZM39.8,17.7L33.3,17.7L30.5,12.8L30,12L36.5,12L39.8,17.7ZM21.2,20.8L24.5,26.6L17.9,26.6L14.6,20.8L21.2,20.8ZM14.7,17.7L18,12L24.6,12L21.3,17.7L14.7,17.7ZM23.9,19.3L27.2,13.6L30.5,19.3L27.2,25L23.9,19.3ZM31.4,3.2L34.7,8.9L28.9,8.9L18,8.9L14.7,3.2L31.4,3.2ZM11.9,4.8L15.2,10.5L11.9,16.2L8.6,10.5L11.9,4.8ZM3.5,19.3L6.8,13.6L15.2,28.1L11.9,33.8L3.5,19.3ZM21.3,35.4L14.7,35.4L18,29.7L24.6,29.7L21.3,35.4ZM31.4,35.4L24.9,35.4L33.3,20.8L39.8,20.8L31.4,35.4Z" style="fill:rgb(244,184,36);fill-rule:nonzero;"/>
    </g>
</svg>